#define batt_2_width 12
#define batt_2_height 16
static unsigned char batt_2_bits[] = {
   0xf8, 0x01, 0x08, 0x01, 0x0e, 0x07, 0x02, 0x04, 0x02, 0x04, 0x02, 0x04,
   0x02, 0x04, 0x02, 0x04, 0x02, 0x04, 0x02, 0x04, 0x02, 0x04, 0x02, 0x04,
   0xfe, 0x07, 0xfe, 0x07, 0xfe, 0x07, 0xfe, 0x07 };
