#define batt_10_width 12
#define batt_10_height 16
static unsigned char batt_10_bits[] = {
   0xf8, 0x01, 0xf8, 0x01, 0xfe, 0x07, 0xfe, 0x07, 0xfe, 0x07, 0xfe, 0x07,
   0xfe, 0x07, 0xfe, 0x07, 0xfe, 0x07, 0xfe, 0x07, 0xfe, 0x07, 0xfe, 0x07,
   0xfe, 0x07, 0xfe, 0x07, 0xfe, 0x07, 0xfe, 0x07 };
