#define cpu_width 15
#define cpu_height 15
static unsigned char cpu_bits[] = {
   0xa8, 0x0a, 0xa8, 0x0a, 0x00, 0x00, 0xfb, 0x6f, 0x08, 0x08, 0xeb, 0x6b,
   0xe8, 0x0b, 0xeb, 0x6b, 0xe8, 0x0b, 0xeb, 0x6b, 0x08, 0x08, 0xfb, 0x6f,
   0x00, 0x00, 0xa8, 0x0a, 0xa8, 0x0a };
