#define disconnected_width 19
#define disconnected_height 20
static unsigned char disconnected_bits[] = {
   0x00, 0x00, 0x00, 0x00, 0x00, 0x00, 0x00, 0x00, 0x00, 0x00, 0x00, 0x00,
   0x00, 0x8c, 0x01, 0x00, 0xdc, 0x01, 0x00, 0xf8, 0x00, 0x00, 0x70, 0x00,
   0x00, 0xf8, 0x00, 0x00, 0xdc, 0x01, 0x00, 0x8c, 0x01, 0x00, 0x00, 0x00,
   0x00, 0x00, 0x00, 0x00, 0x00, 0x00, 0x77, 0x77, 0x07, 0x77, 0x77, 0x07,
   0x77, 0x77, 0x07, 0x00, 0x00, 0x00, 0x00, 0x00, 0x00, 0x00, 0x00, 0x00 };
