#define disk_width 16
#define disk_height 16
static unsigned char disk_bits[] = {
   0xfe, 0x7f, 0xfe, 0x7f, 0x3e, 0x7c, 0x0e, 0x70, 0x0e, 0x70, 0x06, 0x60,
   0x86, 0x61, 0x86, 0x61, 0x06, 0x60, 0x8e, 0x73, 0x8e, 0x74, 0x3e, 0x79,
   0xfe, 0x73, 0xfe, 0x77, 0xfe, 0x7f, 0xfe, 0x7f };
