#define home_width 13
#define home_height 14
static unsigned char home_bits[] = {
   0x40, 0x00, 0xe0, 0x00, 0xf0, 0x01, 0xf8, 0x03, 0xfc, 0x07, 0xfe, 0x0f,
   0xff, 0x1f, 0xfc, 0x07, 0xfc, 0x07, 0xe4, 0x07, 0x64, 0x06, 0x7c, 0x06,
   0x7c, 0x06, 0x7c, 0x06 };
