#define lan_width 19
#define lan_height 20
static unsigned char lan_bits[] = {
   0x00, 0x00, 0x00, 0x00, 0x00, 0x00, 0xf0, 0x7f, 0x00, 0xf8, 0xff, 0x00,
   0xfc, 0xff, 0x01, 0xfc, 0xf8, 0x01, 0x7c, 0xf0, 0x01, 0x1c, 0xc0, 0x01,
   0x1c, 0xc0, 0x01, 0x1c, 0xc0, 0x01, 0x1c, 0xc0, 0x01, 0x1c, 0xc0, 0x01,
   0x5c, 0xd5, 0x01, 0x5c, 0xd5, 0x01, 0xfc, 0xff, 0x01, 0xfc, 0xff, 0x01,
   0xf8, 0xff, 0x00, 0xf0, 0x7f, 0x00, 0x00, 0x00, 0x00, 0x00, 0x00, 0x00 };
