#define left_arrow_width 10
#define left_arrow_height 20
static unsigned char left_arrow_bits[] = {
   0x01, 0x00, 0x03, 0x00, 0x07, 0x00, 0x0f, 0x00, 0x1f, 0x00, 0x3f, 0x00,
   0x7f, 0x00, 0xff, 0x00, 0xff, 0x01, 0xff, 0x03, 0xff, 0x03, 0xff, 0x01,
   0xff, 0x00, 0x7f, 0x00, 0x3f, 0x00, 0x1f, 0x00, 0x0f, 0x00, 0x07, 0x00,
   0x03, 0x00, 0x01, 0x00 };
