#define occ_sel_width 11
#define occ_sel_height 20
static unsigned char occ_sel_bits[] = {
   0x00, 0x00, 0x00, 0x00, 0x00, 0x00, 0x00, 0x00, 0x00, 0x00, 0xfe, 0x03,
   0xfe, 0x03, 0xfe, 0x03, 0xfe, 0x03, 0xfe, 0x03, 0xfe, 0x03, 0xfe, 0x03,
   0xfe, 0x03, 0xfe, 0x03, 0x00, 0x00, 0x00, 0x00, 0x00, 0x00, 0x00, 0x00,
   0x00, 0x00, 0x00, 0x00 };
