#define power_width 12
#define power_height 16
static unsigned char power_bits[] = {
   0x08, 0x01, 0x08, 0x01, 0x08, 0x01, 0x08, 0x01, 0x08, 0x01, 0xfe, 0x07,
   0xfe, 0x07, 0xfe, 0x07, 0xfe, 0x07, 0xfc, 0x03, 0xfc, 0x03, 0xf8, 0x01,
   0xf0, 0x00, 0x60, 0x00, 0x60, 0x00, 0x60, 0x00 };
