#define ram_width 31
#define ram_height 15
static unsigned char ram_bits[] = {
   0x00, 0x00, 0x00, 0x00, 0x00, 0x00, 0x00, 0x00, 0x00, 0x00, 0x00, 0x00,
   0xff, 0xff, 0xff, 0x7f, 0xff, 0xff, 0xff, 0x7f, 0x0f, 0x1e, 0x3c, 0x78,
   0x0f, 0x1e, 0x3c, 0x78, 0x0e, 0x1e, 0x3c, 0x38, 0x0e, 0x1e, 0x3c, 0x38,
   0x0f, 0x1e, 0x3c, 0x78, 0x0f, 0x1e, 0x3c, 0x78, 0xff, 0xff, 0xff, 0x7f,
   0xff, 0xff, 0xff, 0x7f, 0xb7, 0x6d, 0xdb, 0x76, 0xb7, 0x6d, 0xdb, 0x76 };
