#define right_arrow_width 10
#define right_arrow_height 20
static unsigned char right_arrow_bits[] = {
   0x00, 0x02, 0x00, 0x03, 0x80, 0x03, 0xc0, 0x03, 0xe0, 0x03, 0xf0, 0x03,
   0xf8, 0x03, 0xfc, 0x03, 0xfe, 0x03, 0xff, 0x03, 0xff, 0x03, 0xfe, 0x03,
   0xfc, 0x03, 0xf8, 0x03, 0xf0, 0x03, 0xe0, 0x03, 0xc0, 0x03, 0x80, 0x03,
   0x00, 0x03, 0x00, 0x02 };
