#define vol_width 10
#define vol_height 20
static unsigned char vol_bits[] = {
   0x00, 0x00, 0x00, 0x00, 0x00, 0x00, 0x00, 0x03, 0x80, 0x03, 0xc0, 0x03,
   0xe0, 0x03, 0xfc, 0x03, 0xfc, 0x03, 0xfc, 0x03, 0xfc, 0x03, 0xfc, 0x03,
   0xfc, 0x03, 0xe0, 0x03, 0xc0, 0x03, 0x80, 0x03, 0x00, 0x03, 0x00, 0x00,
   0x00, 0x00, 0x00, 0x00 };
