#define volm_width 10
#define volm_height 20
static unsigned char volm_bits[] = {
   0x00, 0x00, 0x00, 0x00, 0x00, 0x00, 0x00, 0x03, 0x80, 0x02, 0x40, 0x02,
   0x20, 0x02, 0x1c, 0x02, 0x04, 0x02, 0x04, 0x02, 0x04, 0x02, 0x04, 0x02,
   0x1c, 0x02, 0x20, 0x02, 0x40, 0x02, 0x80, 0x02, 0x00, 0x03, 0x00, 0x00,
   0x00, 0x00, 0x00, 0x00 };
