#define wifi_2_width 19
#define wifi_2_height 20
static unsigned char wifi_2_bits[] = {
   0x00, 0x00, 0x00, 0x00, 0x00, 0x00, 0x00, 0x00, 0x07, 0x00, 0x00, 0x05,
   0x00, 0x00, 0x05, 0x00, 0x70, 0x05, 0x00, 0x50, 0x05, 0x00, 0x50, 0x05,
   0x00, 0x57, 0x05, 0x00, 0x55, 0x05, 0x00, 0x55, 0x05, 0x70, 0x55, 0x05,
   0x70, 0x55, 0x05, 0x70, 0x55, 0x05, 0x77, 0x55, 0x05, 0x77, 0x55, 0x05,
   0x77, 0x77, 0x07, 0x00, 0x00, 0x00, 0x00, 0x00, 0x00, 0x00, 0x00, 0x00 };
