#define wifi_4_width 19
#define wifi_4_height 20
static unsigned char wifi_4_bits[] = {
   0x00, 0x00, 0x00, 0x00, 0x00, 0x00, 0x00, 0x00, 0x07, 0x00, 0x00, 0x05,
   0x00, 0x00, 0x05, 0x00, 0x70, 0x05, 0x00, 0x70, 0x05, 0x00, 0x70, 0x05,
   0x00, 0x77, 0x05, 0x00, 0x77, 0x05, 0x00, 0x77, 0x05, 0x70, 0x77, 0x05,
   0x70, 0x77, 0x05, 0x70, 0x77, 0x05, 0x77, 0x77, 0x05, 0x77, 0x77, 0x05,
   0x77, 0x77, 0x07, 0x00, 0x00, 0x00, 0x00, 0x00, 0x00, 0x00, 0x00, 0x00 };
