#define wifi_5_width 19
#define wifi_5_height 20
static unsigned char wifi_5_bits[] = {
   0x00, 0x00, 0x00, 0x00, 0x00, 0x00, 0x00, 0x00, 0x07, 0x00, 0x00, 0x07,
   0x00, 0x00, 0x07, 0x00, 0x70, 0x07, 0x00, 0x70, 0x07, 0x00, 0x70, 0x07,
   0x00, 0x77, 0x07, 0x00, 0x77, 0x07, 0x00, 0x77, 0x07, 0x70, 0x77, 0x07,
   0x70, 0x77, 0x07, 0x70, 0x77, 0x07, 0x77, 0x77, 0x07, 0x77, 0x77, 0x07,
   0x77, 0x77, 0x07, 0x00, 0x00, 0x00, 0x00, 0x00, 0x00, 0x00, 0x00, 0x00 };
