#define wifi_1_width 19
#define wifi_1_height 20
static unsigned char wifi_1_bits[] = {
   0x00, 0x00, 0x00, 0x00, 0x00, 0x00, 0x00, 0x00, 0x07, 0x00, 0x00, 0x05,
   0x00, 0x00, 0x05, 0x00, 0x70, 0x05, 0x00, 0x50, 0x05, 0x00, 0x50, 0x05,
   0x00, 0x57, 0x05, 0x00, 0x55, 0x05, 0x00, 0x55, 0x05, 0x70, 0x55, 0x05,
   0x50, 0x55, 0x05, 0x50, 0x55, 0x05, 0x57, 0x55, 0x05, 0x57, 0x55, 0x05,
   0x77, 0x77, 0x07, 0x00, 0x00, 0x00, 0x00, 0x00, 0x00, 0x00, 0x00, 0x00 };
