#define wifi_3_width 19
#define wifi_3_height 20
static unsigned char wifi_3_bits[] = {
   0x00, 0x00, 0x00, 0x00, 0x00, 0x00, 0x00, 0x00, 0x07, 0x00, 0x00, 0x05,
   0x00, 0x00, 0x05, 0x00, 0x70, 0x05, 0x00, 0x50, 0x05, 0x00, 0x50, 0x05,
   0x00, 0x57, 0x05, 0x00, 0x57, 0x05, 0x00, 0x57, 0x05, 0x70, 0x57, 0x05,
   0x70, 0x57, 0x05, 0x70, 0x57, 0x05, 0x77, 0x57, 0x05, 0x77, 0x57, 0x05,
   0x77, 0x77, 0x07, 0x00, 0x00, 0x00, 0x00, 0x00, 0x00, 0x00, 0x00, 0x00 };
